# xmcd
#
# Track frame offsets:
#	150
#	3706
#	7281
#	12616
#	16648
#	19666
#	22639
#	25649
#	28497
#	31510
#	34591
#	39666
#	43701
#	47008
#	50946
#	53505
#	56945
#	60262
#	66060
#	70755
#	77266
#	82374
#	87192
#	90236
#	93042
#	95816
#	98593
#	101941
#	105219
#	115799
#	120461
#	128328
#	134959
#	140849
#
# Disc length: 1896 seconds
#
# Revision: 0
# Processed by: cddbd v1.5.1PL0 Copyright (c) Steve Scherf et al.
# Submitted via: dBpowerAMP V4.0
#
DISCID=b0076622
DTITLE=Wolf Marshall - B. B. King - The Definitive Collection
DYEAR=2002
DGENRE=Blues
TTITLE0=Introduction
TTITLE1=Tuning
TTITLE2=Three O' Clock Blues
TTITLE3=Three O' Clock Blues - Solo
TTITLE4=Please Love Me
TTITLE5=Please Love Me - Solo
TTITLE6=You Upset Me Baby
TTITLE7=You Upset Me Baby - Solo
TTITLE8=Cryin' Won't Help You
TTITLE9=Cryin' Won't Help You - Solo
TTITLE10=Sweet Little Angel
TTITLE11=Sweet Little Angel - Solo
TTITLE12=You Done Lost Your Good Thing Now
TTITLE13=You Done Lost Your Good Thing Now - Solo
TTITLE14=Beautician Blues
TTITLE15=Rock Me Baby
TTITLE16=Rock Me Baby - Solo
TTITLE17=Five Long Years
TTITLE18=Five Long Years - Solo
TTITLE19=Just Like a Woman
TTITLE20=Don't Answer the Door
TTITLE21=Don't Answer the Door - Solo
TTITLE22=Paying the Cost to Be the Boss
TTITLE23=Paying the Cost to Be the Boss - Solo
TTITLE24=Why I Sing the Blues
TTITLE25=Why I Sing the Blues - Solo
TTITLE26=The Thrill Is Gone
TTITLE27=The Thrill Is Gone - Solo
TTITLE28=The Thrill Is Gone - Outro Solo
TTITLE29=Sweet Sixteen
TTITLE30=Sweet Sixteen - Solo
TTITLE31=Riding With the King
TTITLE32=Riding With the King - Solo
TTITLE33=Closing
EXTD=
EXTT0=
EXTT1=
EXTT2=
EXTT3=
EXTT4=
EXTT5=
EXTT6=
EXTT7=
EXTT8=
EXTT9=
EXTT10=
EXTT11=
EXTT12=
EXTT13=
EXTT14=
EXTT15=
EXTT16=
EXTT17=
EXTT18=
EXTT19=
EXTT20=
EXTT21=
EXTT22=
EXTT23=
EXTT24=
EXTT25=
EXTT26=
EXTT27=
EXTT28=
EXTT29=
EXTT30=
EXTT31=
EXTT32=
EXTT33=
PLAYORDER=
